Motion_pu04
version=1
nRows=12
nColumns=43
inDegrees=yes
endheader
time	pelvis_tilt	pelvis_list	pelvis_rotation	pelvis_tx	pelvis_ty	pelvis_tz	hip_flexion_r	hip_adduction_r	hip_rotation_r	knee_angle_r	ankle_angle_r	subtalar_angle_r	mtp_angle_r	hip_flexion_l	hip_adduction_l	hip_rotation_l	knee_angle_l	ankle_angle_l	subtalar_angle_l	mtp_angle_l	lumbar_extension	lumbar_bending	lumbar_rotation	neck_flexion	neck_lateral_bending	neck_rotation	arm_flex_r	arm_add_r	arm_rot_r	elbow_flex_r	pro_sup_r	wrist_flex_r	wrist_dev_r	hand_finger_flex_r	arm_flex_l	arm_add_l	arm_rot_l	elbow_flex_l	pro_sup_l	wrist_flex_l	wrist_dev_l	hand_finger_flex_l
      3.11750000	     -0.42998707	      7.33993992	    -96.80285376	      0.01713044	      0.95036177	      0.64313509	      6.82130193	     -4.84974195	     -3.21475889	    -13.79596902	      5.74026154	     13.98528670	     16.91123981	      4.11436347	     -0.81001338	    -13.08894939	    -12.76684363	      6.24363200	      7.94683376	     17.22160756	     -2.11015568	      0.27119372	      3.21790379	     40.85293434	     -0.09076866	     10.72722597	    144.29284965	    -18.43512175	     57.95171511	     42.87481228	    121.78691552	      8.94971459	      6.84959488	    -29.79512712	    154.87753899	    -26.20690288	     82.25972092	     46.70773977	     99.33536378	     -8.80472410	      7.42909514	     16.10198310
      3.12000000	     -0.41967866	      7.44779658	    -96.81147702	      0.01721681	      0.95022884	      0.64330149	      6.89353177	     -4.85287531	     -3.22919151	    -13.72184445	      5.68555687	     13.98859210	     16.93200518	      4.17931036	     -0.79538008	    -13.11508455	    -12.66684177	      6.18951315	      7.94883942	     17.22607901	     -2.06482825	      0.28308615	      3.22642784	     40.96434322	     -0.01875195	     10.73029715	    144.54071428	    -18.17978084	     58.07974228	     42.37494957	    121.72663713	      9.07681482	      6.90606032	    -29.68796704	    155.00437408	    -25.96953935	     82.43245990	     46.29225507	     99.23361825	     -8.68518361	      7.52981620	     16.03360397
      3.12250000	     -0.41765126	      7.47659970	    -96.83279194	      0.01707273	      0.95032495	      0.64398262	      6.88443787	     -4.84197661	     -3.23170864	    -13.72732078	      5.68081603	     13.98897880	     16.93351067	      4.15827269	     -0.80239362	    -13.11342814	    -12.67533594	      6.18491780	      7.94838712	     17.22648158	     -2.03749804	      0.26760122	      3.21104232	     40.96656325	     -0.02171874	     10.73182041	    144.57706270	    -18.14231895	     58.08928975	     42.36510056	    121.72053421	      9.08432318	      6.90337380	    -29.68004692	    155.03488463	    -25.92555493	     82.43538974	     46.28665906	     99.22511009	     -8.67964193	      7.53182429	     16.02801267
      3.12500000	     -0.41842837	      7.58948138	    -96.85177689	      0.01720988	      0.95017853	      0.64413156	      6.97435292	     -4.83653590	     -3.25146538	    -13.67043167	      5.61499345	     13.98991387	     16.95701551	      4.23333033	     -0.79797215	    -13.13548154	    -12.58775549	      6.12433150	      7.94413587	     17.23229979	     -1.98833774	      0.30253708	      3.25447414	     41.10005451	      0.04121609	     10.76408203	    144.87431152	    -17.86407953	     58.30918565	     41.80251978	    121.61915526	      9.29224743	      6.93750707	    -29.51015143	    155.19421513	    -25.68147015	     82.71639029	     45.85749792	     99.11864760	     -8.50885381	      7.65099394	     15.95732977
      3.12750000	     -0.42004744	      7.61808527	    -96.87489694	      0.01710093	      0.95027977	      0.64481112	      6.96580095	     -4.82373906	     -3.25302533	    -13.67659901	      5.61067429	     13.99077473	     16.95860559	      4.21312145	     -0.80483557	    -13.13414872	    -12.59773893	      6.12081681	      7.94262712	     17.23290633	     -1.96374239	      0.28535578	      3.23873637	     41.10232058	      0.03532375	     10.76750753	    144.90806543	    -17.83167416	     58.32078882	     41.78883001	    121.61109018	      9.30192462	      6.93427914	    -29.49994917	    155.22765187	    -25.63542363	     82.72170738	     45.86020471	     99.10922678	     -8.50223453	      7.65138782	     15.95198151
      3.13000000	     -0.43025051	      7.72482614	    -96.91570359	      0.01721858	      0.95016274	      0.64490390	      7.05725806	     -4.80975955	     -3.25896475	    -13.62215389	      5.54823526	     14.00032611	     16.98338769	      4.29387344	     -0.81258692	    -13.16294152	    -12.54049660	      6.07111511	      7.92057173	     17.24232115	     -1.93301847	      0.33364764	      3.30906788	     41.25003309	      0.09011138	     10.82814932	    145.22657619	    -17.51168430	     58.54163295	     41.16169376	    121.47715893	      9.54622537	      6.96100073	    -29.29032502	    155.41579959	    -25.41365320	     83.04735618	     45.45161001	     98.98173966	     -8.30545618	      7.76262820	     15.88532469
      3.13250000	     -0.40562617	      7.84757134	    -97.10939056	      0.01680537	      0.94984987	      0.64502507	      7.28383583	     -4.77306380	     -2.92097200	    -13.76912585	      5.71787115	     13.84305664	     17.45277572	      4.44291371	     -0.82296967	    -13.16795567	    -12.64343849	      6.20988800	      7.74516001	     17.51889075	     -1.94675344	      0.29560317	      3.38064834	     41.76696108	     -0.03143403	     10.90863739	    145.84438736	    -17.32549872	     59.74907292	     40.49578100	    119.49548347	      8.77773469	      6.47302370	    -27.99219453	    156.51680840	    -25.22332682	     85.28644199	     45.10391270	     96.18871296	     -7.54512981	      7.53528902	     14.31470482
      3.13500000	     -0.40824090	      7.87485087	    -97.11138099	      0.01686297	      0.95002681	      0.64567236	      7.27289434	     -4.77332709	     -2.92257883	    -13.77380260	      5.70383718	     13.84537894	     17.45213728	      4.42734357	     -0.82304637	    -13.17464306	    -12.65041893	      6.19978613	      7.74450090	     17.51817044	     -1.93179826	      0.29314255	      3.37355114	     41.75379386	     -0.02302881	     10.91246338	    145.88710602	    -17.27301201	     59.73995369	     40.47853458	    119.49713477	      8.78011445	      6.48437572	    -27.98621041	    156.52643376	    -25.17054489	     85.28018792	     45.10492697	     96.18724388	     -7.54762386	      7.53709955	     14.30899309
      3.13750000	     -0.41231324	      7.93147721	    -97.13129109	      0.01695458	      0.94995456	      0.64580568	      7.30986125	     -4.76855098	     -2.96383327	    -13.70907228	      5.54844133	     13.87605960	     17.44681208	      4.46914367	     -0.83035009	    -13.25361366	    -12.61926750	      6.08391413	      7.74388090	     17.51147869	     -1.93650585	      0.30612671	      3.36686019	     41.72195359	      0.10139971	     10.97786986	    146.05586979	    -16.94072114	     59.72756185	     39.87142203	    119.52701905	      8.93179500	      6.68397605	    -27.85860182	    156.56582107	    -24.98651692	     85.30521095	     44.75171529	     96.17821754	     -7.52453563	      7.63913214	     14.24969760
      3.14000000	     -0.41589884	      7.96094288	    -97.13337077	      0.01692272	      0.95011206	      0.64655069	      7.28787528	     -4.77308074	     -2.96393622	    -13.71856835	      5.54035088	     13.87821605	     17.44704352	      4.45321882	     -0.83417715	    -13.25672680	    -12.62777528	      6.07807112	      7.74347706	     17.51153760	     -1.90963112	      0.30232953	      3.36992912	     41.72413571	      0.10367274	     10.98389748	    146.08284352	    -16.89596892	     59.72433507	     39.85721603	    119.52701306	      8.94061734	      6.68804833	    -27.84979182	    156.58597297	    -24.94944379	     85.30156538	     44.74874794	     96.17573566	     -7.52188445	      7.64107318	     14.24643526
      3.14250000	     -0.41500256	      8.03952916	    -97.17449767	      0.01685362	      0.95000476	      0.64668247	      7.33938338	     -4.76064988	     -2.98373104	    -13.62480950	      5.45456935	     13.91329172	     17.44998419	      4.50184280	     -0.84314560	    -13.32253937	    -12.57665065	      6.01300405	      7.74486940	     17.51201900	     -1.90221140	      0.30085165	      3.37107378	     41.81159199	      0.16290220	     11.06573292	    146.25883895	    -16.59223971	     59.69969037	     39.29657548	    119.53695985	      9.13895278	      6.80927463	    -27.70460348	    156.67164263	    -24.77698748	     85.34640981	     44.41170607	     96.15384080	     -7.44199165	      7.73182067	     14.22029302
      3.14500000	     -0.41481661	      8.06792385	    -97.18374847	      0.01684544	      0.95015057	      0.64744625	      7.31877472	     -4.76589022	     -2.98155696	    -13.63894378	      5.44714028	     13.91620694	     17.45056312	      4.48649612	     -0.84438361	    -13.32593337	    -12.58841547	      6.00765156	      7.74512677	     17.51237225	     -1.87747651	      0.30339462	      3.36589997	     41.81984187	      0.16548769	     11.07198827	    146.29086893	    -16.54320010	     59.69736531	     39.29246259	    119.53501341	      9.15302694	      6.80651653	    -27.69268884	    156.67768875	    -24.74785596	     85.35156930	     44.40561303	     96.15014788	     -7.43278341	      7.73409439	     14.21921702
